<?xml version="1.0" encoding="UTF-8"?>
<svg id="Camada_2" data-name="Camada 2" xmlns="http://www.w3.org/2000/svg" viewBox="0 0 69.31 69.32">
  <defs>
    <style>
      .cls-1 {
        fill: #00cbc5;
        stroke-width: 0px;
      }
    </style>
  </defs>
  <g id="SECAO-04-Diferenciais">
    <path class="cls-1" d="M24.55,0c3.99,0,7.22,3.23,7.22,7.22s-3.23,7.22-7.22,7.22-7.22-3.23-7.22-7.22S20.56,0,24.55,0ZM35.94,24.06c.4-1.16.03-2.45-.93-3.21-2.84-2.27-6.56-3.52-10.46-3.52s-7.62,1.25-10.46,3.52c-.96.77-1.33,2.05-.93,3.21.41,1.16,1.5,1.94,2.73,1.94h17.33c1.23,0,2.32-.78,2.73-1.94ZM66.86,25.07c-1.49-1.35-3.43-2.06-5.42-1.96-2.01.09-3.87.96-5.18,2.41l-10.23,10.79c.09.61.19,1.21.19,1.84,0,6.02-4.49,11.2-10.45,12.04l-12.28,1.72c-1.58.23-3.04-.87-3.27-2.45-.23-1.58.87-3.04,2.45-3.27l12.02-1.68c2.7-.39,5.05-2.33,5.6-5,.85-4.12-2.28-7.76-6.25-7.76H11.55c-6.38,0-11.55,5.17-11.55,11.55v14.44c0,6.38,5.17,11.55,11.55,11.55h12.31c8.1,0,15.83-3.4,21.3-9.38l22.25-24.29c2.74-3.07,2.49-7.82-.55-10.59h0Z"/>
  </g>
</svg>