<?xml version="1.0" encoding="UTF-8"?>
<svg id="Camada_2" data-name="Camada 2" xmlns="http://www.w3.org/2000/svg" viewBox="0 0 96.5 96.79">
  <defs>
    <style>
      .cls-1 {
        fill: #00cbc5;
        stroke-width: 0px;
      }
    </style>
  </defs>
  <g id="SECA0-03-Diferenciais">
    <path class="cls-1" d="M94.81,74.99l-12.2-12.2c.28-1.97.21-3.94-.23-5.88-.07-.31.14-.7.5-.94,2.28-1.48,4.13-3.47,5.5-5.93,1.31-2.36,2-5.08,1.99-7.8.01-2.77-.67-5.49-1.99-7.86-1.36-2.46-3.22-4.46-5.5-5.93-.36-.23-.57-.62-.5-.93.62-2.72.53-5.5-.27-8.26-1.52-5.27-5.73-9.49-11.01-11-2.76-.79-5.54-.88-8.25-.27-.31.08-.71-.14-.94-.5-1.48-2.28-3.47-4.14-5.93-5.5-4.8-2.66-10.77-2.66-15.56,0-2.46,1.36-4.45,3.22-5.93,5.5-.23.37-.62.58-.94.5-2.72-.61-5.5-.53-8.25.27-5.27,1.51-9.49,5.73-11,11-.8,2.77-.88,5.55-.27,8.26.07.31-.14.71-.5.94-2.29,1.48-4.14,3.47-5.5,5.93-1.31,2.36-2,5.08-1.99,7.8-.01,2.77.67,5.49,1.99,7.86,1.36,2.46,3.21,4.45,5.5,5.93.36.23.57.63.5.94-.45,1.96-.51,3.96-.22,5.96l-12.12,12.12c-3.61,3.61-1.05,9.77,4.05,9.77h6.28v6.28c0,5.1,6.17,7.66,9.77,4.05l15.19-15.19c1.02.96,2.16,1.82,3.44,2.53,2.4,1.33,5.1,2,7.79,2s5.38-.67,7.78-2c1.3-.72,2.45-1.6,3.48-2.58l15.23,15.23c3.61,3.61,9.77,1.05,9.77-4.05v-6.28h6.29c5.1,0,7.66-6.17,4.05-9.77ZM64.57,38.73l-10.4,10.4c-2.66,2.66-6.19,4.12-9.95,4.12s-7.29-1.46-9.95-4.12l-4.37-4.37c-2.36-2.35-2.36-6.18,0-8.53,2.36-2.36,6.17-2.36,8.53,0l4.37,4.37c.78.78,2.06.78,2.84,0l10.4-10.4c2.36-2.36,6.17-2.36,8.53,0,2.36,2.35,2.36,6.18,0,8.53h0Z"/>
  </g>
</svg>