<?xml version="1.0" encoding="UTF-8"?>
<svg id="Camada_2" data-name="Camada 2" xmlns="http://www.w3.org/2000/svg" viewBox="0 0 69.24 69.32">
  <defs>
    <style>
      .cls-1 {
        fill: #00cbc5;
        stroke-width: 0px;
      }
    </style>
  </defs>
  <g id="SECAO-04-Diferenciais">
    <path class="cls-1" d="M15.81,31.77c5.57,0,10.11-4.53,10.11-10.11s-4.53-10.11-10.11-10.11-10.11,4.53-10.11,10.11,4.53,10.11,10.11,10.11ZM44.69,20.22c5.57,0,10.11-4.53,10.11-10.11S50.26,0,44.69,0s-10.11,4.53-10.11,10.11,4.53,10.11,10.11,10.11ZM51.91,34.66c-9.57,0-17.33,7.76-17.33,17.33s7.76,17.33,17.33,17.33,17.33-7.76,17.33-17.33-7.76-17.33-17.33-17.33ZM62.55,51.16l-7.81,7.55c-1.31,1.29-3.04,1.94-4.77,1.94s-3.47-.65-4.8-1.95l-3.91-3.85c-1.14-1.12-1.16-2.95-.04-4.08,1.11-1.14,2.94-1.16,4.08-.04l3.91,3.84c.42.41,1.1.4,1.51,0l7.84-7.58c1.15-1.1,2.98-1.07,4.08.08,1.1,1.15,1.07,2.98-.08,4.08h0ZM30.25,43.92c-.94,2.51-1.45,5.23-1.45,8.07H2.89c-.82,0-1.61-.35-2.15-.96s-.81-1.43-.72-2.24c.89-8.05,7.68-14.12,15.79-14.12,6.37,0,11.93,3.75,14.45,9.26ZM33.5,38.03c-1.11-1.57-2.43-2.99-3.91-4.21,2.16-6.29,8.11-10.71,15.02-10.71,5.21,0,9.87,2.51,12.78,6.43-1.76-.43-3.59-.66-5.48-.66-7.52,0-14.19,3.59-18.41,9.14h0Z"/>
  </g>
</svg>