<?xml version="1.0" encoding="UTF-8"?>
<svg id="Camada_2" data-name="Camada 2" xmlns="http://www.w3.org/2000/svg" viewBox="0 0 69.32 56.8">
  <defs>
    <style>
      .cls-1 {
        fill: #00cbc5;
        stroke-width: 0px;
      }
    </style>
  </defs>
  <g id="SECAO-04-Diferenciais">
    <path class="cls-1" d="M57.77,0H11.55C5.18,0,0,5.18,0,11.55v23.11c0,6.37,5.18,11.55,11.55,11.55h8.44l10.83,9.12c1.1.98,2.49,1.46,3.86,1.46s2.69-.47,3.73-1.4l11.11-9.18h8.24c6.37,0,11.55-5.18,11.55-11.55V11.55c0-6.37-5.18-11.55-11.55-11.55h0ZM22.59,22.75l-3.42,2.78,1.41,4.3c.19.58,0,1.22-.49,1.6-.49.37-1.16.4-1.67.07l-3.98-2.59-3.91,2.62c-.24.16-.52.24-.8.24-.31,0-.61-.1-.87-.29-.49-.37-.7-1.01-.51-1.59l1.36-4.36-3.43-2.79c-.46-.39-.63-1.03-.42-1.6.21-.57.75-.95,1.35-.95h4.33l1.53-4.3c.21-.57.75-.94,1.35-.94s1.14.38,1.35.94l1.53,4.3h4.33c.61,0,1.15.38,1.36.95s.04,1.21-.43,1.6h0ZM42.81,22.75l-3.42,2.78,1.41,4.3c.19.58,0,1.22-.49,1.6-.49.37-1.16.4-1.67.07l-3.98-2.59-3.91,2.62c-.24.16-.52.24-.8.24-.31,0-.61-.1-.87-.29-.49-.37-.7-1.01-.51-1.59l1.36-4.36-3.43-2.79c-.46-.39-.63-1.03-.42-1.6.21-.57.75-.95,1.35-.95h4.33l1.53-4.3c.21-.57.75-.94,1.35-.94s1.14.38,1.35.94l1.53,4.3h4.33c.61,0,1.15.38,1.36.95s.04,1.21-.43,1.6h0ZM63.03,22.75l-3.42,2.78,1.41,4.3c.19.58,0,1.22-.49,1.6-.49.37-1.16.4-1.67.07l-3.98-2.59-3.91,2.62c-.24.16-.52.24-.8.24-.31,0-.61-.1-.87-.29-.49-.37-.7-1.01-.51-1.59l1.36-4.36-3.43-2.79c-.46-.39-.63-1.03-.42-1.6.21-.57.75-.95,1.35-.95h4.33l1.53-4.3c.21-.57.75-.94,1.35-.94s1.14.38,1.35.94l1.53,4.3h4.33c.61,0,1.15.38,1.36.95s.04,1.21-.43,1.6h0Z"/>
  </g>
</svg>