<?xml version="1.0" encoding="UTF-8"?>
<svg id="Camada_2" data-name="Camada 2" xmlns="http://www.w3.org/2000/svg" viewBox="0 0 94.54 96.5">
  <defs>
    <style>
      .cls-1 {
        fill: #00cbc5;
        stroke-width: 0px;
      }
    </style>
  </defs>
  <g id="SECA0-03-Diferenciais">
    <path class="cls-1" d="M58.3,50.26c0,5.55-4.5,10.05-10.05,10.05s-10.05-4.5-10.05-10.05,4.5-10.05,10.05-10.05,10.05,4.5,10.05,10.05ZM87.17,45.94l-10.47,14.96c-1.5,2.15-3.96,3.43-6.59,3.43H26.38c-2.62,0-5.09-1.28-6.59-3.43l-10.47-14.96c-1.27-1.82-3.78-2.26-5.6-.99-1.82,1.27-2.26,3.78-.99,5.6l10.47,14.96c3.01,4.29,7.93,6.86,13.18,6.86h5.78v20.1c0,2.22,1.8,4.02,4.02,4.02h24.12c2.22,0,4.02-1.8,4.02-4.02v-20.1h5.78c5.24,0,10.17-2.57,13.18-6.86l10.47-14.96c1.27-1.82.83-4.33-.99-5.6-1.82-1.27-4.32-.83-5.6.99h0ZM36.19,20.1h8.04v3.82c0,2.07,2.5,3.11,3.97,1.64l7.1-7.1c1.31-1.31,1.31-3.44,0-4.76l-7.1-7.1c-1.47-1.47-3.97-.43-3.97,1.64v3.82h-8.04c-2.22,0-4.02,1.8-4.02,4.02s1.8,4.02,4.02,4.02h0ZM93.99,27.27c-.75,1.27-2.09,1.98-3.47,1.98-.69,0-1.4-.18-2.03-.55l-.55-.33c-1.56,1.44-3.43,2.5-5.52,3.13v.66c0,2.22-1.8,4.02-4.02,4.02s-4.02-1.8-4.02-4.02v-.66c-2.08-.63-3.96-1.69-5.52-3.13l-.55.33c-.64.38-1.34.55-2.03.55-1.38,0-2.72-.71-3.47-1.98-1.13-1.91-.49-4.38,1.43-5.5l.54-.32c-.27-1.08-.45-2.2-.45-3.36s.18-2.28.45-3.36l-.54-.32c-1.91-1.13-2.55-3.59-1.43-5.5,1.13-1.92,3.59-2.56,5.5-1.43l.55.33c1.56-1.44,3.43-2.5,5.52-3.13v-.66C74.38,1.8,76.18,0,78.4,0s4.02,1.8,4.02,4.02v.66c2.08.63,3.96,1.69,5.52,3.13l.55-.33c1.91-1.12,4.38-.49,5.5,1.43,1.13,1.91.49,4.38-1.43,5.5l-.54.32c.27,1.08.45,2.2.45,3.36s-.18,2.28-.45,3.36l.54.32c1.91,1.13,2.55,3.59,1.43,5.5ZM84.43,18.09c0-3.32-2.71-6.03-6.03-6.03s-6.03,2.71-6.03,6.03,2.71,6.03,6.03,6.03,6.03-2.71,6.03-6.03ZM11.95,36.19h4.02c2.22,0,4.02-1.8,4.02-4.02v-4.02H7.93v4.02c0,2.22,1.8,4.02,4.02,4.02ZM5.92,24.12h16.08c4.02-2.01,6.03-6.2,6.03-10.05,0-4.31-1.94-8.33-5.32-11.02C19.33.36,14.94-.61,10.65.38,5.52,1.57,1.44,5.65.26,10.78c-1.14,4.95,1.64,11.34,5.66,13.35Z"/>
  </g>
</svg>