<?xml version="1.0" encoding="UTF-8"?>
<svg id="Camada_2" data-name="Camada 2" xmlns="http://www.w3.org/2000/svg" viewBox="0 0 68.88 69.32">
  <defs>
    <style>
      .cls-1 {
        fill: #00cbc5;
        stroke-width: 0px;
      }
    </style>
  </defs>
  <g id="SECAO-04-Diferenciais">
    <path class="cls-1" d="M68.03,63.94l-7.7-7.7c2.02-2.83,3.21-6.29,3.21-10.03,0-9.57-7.76-17.33-17.33-17.33s-17.33,7.76-17.33,17.33,7.76,17.33,17.33,17.33c3.74,0,7.2-1.2,10.03-3.21l7.7,7.7c.56.56,1.3.85,2.04.85s1.48-.28,2.04-.85c1.13-1.13,1.13-2.95,0-4.08ZM44.27,54.87c-1.74,0-3.48-.65-4.81-1.95l-3.27-3.2c-1.14-1.12-1.16-2.95-.04-4.08,1.11-1.14,2.94-1.16,4.08-.05l3.27,3.2c.42.41,1.09.41,1.51,0l7.84-7.58c1.15-1.1,2.98-1.07,4.08.08,1.11,1.15,1.07,2.98-.08,4.08l-7.81,7.55c-1.31,1.29-3.04,1.94-4.77,1.94h0ZM23.11,46.21c0-12.74,10.37-23.11,23.11-23.11,4.21,0,8.15,1.15,11.55,3.13v-11.79c0-7.96-6.48-14.44-14.44-14.44H14.44C6.48,0,0,6.48,0,14.44v40.43c0,7.96,6.48,14.44,14.44,14.44h31.77c-12.74,0-23.11-10.37-23.11-23.11ZM28.88,14.44h14.44c1.59,0,2.89,1.29,2.89,2.89s-1.29,2.89-2.89,2.89h-14.44c-1.59,0-2.89-1.29-2.89-2.89s1.29-2.89,2.89-2.89ZM17.33,49.1h-2.89c-1.59,0-2.89-1.29-2.89-2.89s1.29-2.89,2.89-2.89h2.89c1.59,0,2.89,1.29,2.89,2.89s-1.29,2.89-2.89,2.89ZM17.33,34.66h-2.89c-1.59,0-2.89-1.29-2.89-2.89s1.29-2.89,2.89-2.89h2.89c1.59,0,2.89,1.29,2.89,2.89s-1.29,2.89-2.89,2.89ZM17.33,20.22h-2.89c-1.59,0-2.89-1.29-2.89-2.89s1.29-2.89,2.89-2.89h2.89c1.59,0,2.89,1.29,2.89,2.89s-1.29,2.89-2.89,2.89Z"/>
  </g>
</svg>