<?xml version="1.0" encoding="UTF-8"?>
<svg id="Camada_2" data-name="Camada 2" xmlns="http://www.w3.org/2000/svg" viewBox="0 0 91.78 96.48">
  <defs>
    <style>
      .cls-1 {
        fill: #00cbc5;
        stroke-width: 0px;
      }
    </style>
  </defs>
  <g id="SECA0-03-Diferenciais">
    <path class="cls-1" d="M89.24,14.88l-5.32,5.32-12.32-12.32,4.96-4.96c3.22-3.22,8.48-3.84,12-.95,4.06,3.32,4.28,9.31.67,12.92h0ZM65.92,13.56l-21.29,21.29c-3.27,3.27-5.1,7.7-5.1,12.32v3.09c0,1.11.9,2.01,2.01,2.01h3.09c4.62,0,9.05-1.84,12.32-5.1l21.29-21.29s-12.32-12.32-12.32-12.32ZM80.82,55.83l-1.81-1.05c.41-2.19.62-4.37.62-6.53s-.21-4.35-.62-6.53l-1.17-4.08-15.21,15.21c-4.81,4.81-11.2,7.46-18,7.46h-3.1c-5.54,0-10.05-4.51-10.05-10.05v-3.1c0-6.8,2.65-13.19,7.46-18l16.56-16.56v-.54c0-6.65-5.41-12.06-12.06-12.06s-12.06,5.41-12.06,12.06v2.1c-4.21,1.49-8.11,3.74-11.49,6.63l-1.81-1.04c-2.79-1.6-6.03-2.03-9.15-1.19-3.11.84-5.71,2.84-7.31,5.63C0,26.98-.42,30.23.42,33.35c.84,3.11,2.84,5.71,5.63,7.31l1.81,1.04c-.41,2.19-.62,4.37-.62,6.54s.21,4.35.62,6.54l-1.81,1.04c-2.79,1.61-4.79,4.21-5.63,7.31-.84,3.11-.42,6.36,1.19,9.15,1.6,2.79,4.2,4.8,7.31,5.63,3.12.84,6.37.42,9.15-1.19l1.81-1.04c3.38,2.9,7.28,5.14,11.49,6.63v2.1c0,6.65,5.41,12.06,12.06,12.06s12.06-5.41,12.06-12.06v-2.1c4.21-1.49,8.11-3.74,11.49-6.63l1.81,1.04c2.79,1.6,6.04,2.03,9.15,1.19,3.11-.84,5.71-2.84,7.31-5.63,3.32-5.77,1.32-13.15-4.44-16.47v.02Z"/>
  </g>
</svg>