<?xml version="1.0" encoding="UTF-8"?>
<svg id="Camada_2" data-name="Camada 2" xmlns="http://www.w3.org/2000/svg" viewBox="0 0 69.32 67.38">
  <defs>
    <style>
      .cls-1 {
        fill: #00cbc5;
        stroke-width: 0px;
      }
    </style>
  </defs>
  <g id="SECAO-04-Diferenciais">
    <path class="cls-1" d="M2.89,45.72c0-3.99,3.23-7.22,7.22-7.22s7.22,3.23,7.22,7.22-3.23,7.22-7.22,7.22-7.22-3.23-7.22-7.22ZM19.57,66.31c.55-.67.77-1.56.59-2.41-.97-4.68-5.2-8.08-10.05-8.08S1.03,59.22.06,63.9c-.18.85.04,1.74.59,2.41.55.67,1.37,1.07,2.24,1.07h14.44c.87,0,1.69-.39,2.24-1.07ZM10.11,61.6h.03-.03ZM69.32,50.05c0-6.37-5.18-11.55-11.55-11.55h-25.99c-3.19,0-5.78-2.59-5.78-5.78s2.59-5.78,5.78-5.78h2.89c1.59,0,2.89-1.29,2.89-2.89s-1.29-2.89-2.89-2.89h-2.89c-6.37,0-11.55,5.18-11.55,11.55s5.18,11.55,11.55,11.55h25.99c3.19,0,5.78,2.59,5.78,5.78s-2.59,5.78-5.78,5.78h-28.88c-1.59,0-2.89,1.29-2.89,2.89s1.29,2.89,2.89,2.89h28.88c6.37,0,11.55-5.18,11.55-11.55ZM44.78,19.4l-2.49,7.99c-.34,1.07.04,2.24.94,2.91.47.35,1.03.53,1.59.53.51,0,1.03-.15,1.47-.45l7.17-4.8,7.29,4.75c.94.61,2.17.56,3.06-.12.89-.69,1.25-1.86.9-2.93l-2.59-7.89,6.26-5.1c.85-.72,1.16-1.89.78-2.93s-1.37-1.74-2.49-1.74h-7.95l-2.81-7.89c-.38-1.04-1.37-1.72-2.48-1.72s-2.1.69-2.48,1.72l-2.81,7.89h-7.95c-1.11,0-2.1.69-2.48,1.74-.38,1.04-.08,2.21.77,2.93l6.29,5.12h0Z"/>
  </g>
</svg>