<?xml version="1.0" encoding="UTF-8"?>
<svg id="Camada_2" data-name="Camada 2" xmlns="http://www.w3.org/2000/svg" viewBox="0 0 106.07 53.03">
  <defs>
    <style>
      .cls-1 {
        fill: #00cbc5;
        stroke-width: 0px;
      }
    </style>
  </defs>
  <g id="SECA0-03-Diferenciais">
    <path class="cls-1" d="M92.81,0h-26.52C63.85,0,61.87,1.98,61.87,4.42s1.98,4.42,4.42,4.42h24.69l-29,29c-2.49,2.49-6.55,2.49-9.05,0l-11.22-11.22c-5.94-5.94-15.61-5.94-21.55,0L1.3,45.49c-1.73,1.73-1.73,4.52,0,6.25.86.86,1.99,1.29,3.12,1.29s2.26-.43,3.12-1.29l18.87-18.87c2.42-2.42,6.63-2.42,9.05,0l11.22,11.22c5.94,5.94,15.61,5.94,21.55,0l29.01-29v24.69c0,2.44,1.98,4.42,4.42,4.42s4.42-1.98,4.42-4.42V13.26c0-7.31-5.95-13.26-13.26-13.26h0Z"/>
  </g>
</svg>