<?xml version="1.0" encoding="UTF-8"?>
<svg id="Camada_2" data-name="Camada 2" xmlns="http://www.w3.org/2000/svg" viewBox="0 0 1006.02 531.62">
  <defs>
    <style>
      .cls-1 {
        opacity: .5;
      }

      .cls-2 {
        fill: #00cbc5;
        stroke-width: 0px;
      }
    </style>
  </defs>
  <g id="SECAO-01-Hero">
    <g class="cls-1">
      <path class="cls-2" d="M450.7,146.49c1.29,31.11,22.74,52.84,52.17,52.84s50.88-21.73,52.17-52.84c.53-12.87.53-80.78,0-93.65h0c-1.29-31.11-22.75-52.84-52.17-52.84s-50.88,21.73-52.17,52.84h0c-.53,12.86-.53,80.78,0,93.65Z"/>
      <path class="cls-2" d="M335.6,241.91c25.48-14.71,33.2-44.26,18.76-71.85-5.97-11.41-40.58-71.35-47.47-82.23h0c-16.67-26.3-46.12-34.39-71.6-19.68-25.48,14.71-33.2,44.26-18.76,71.85h0c5.97,11.41,40.58,71.35,47.47,82.23,16.67,26.3,46.12,34.39,71.6,19.68Z"/>
      <path class="cls-2" d="M221.45,369.15c14.71-25.48,6.62-54.93-19.67-71.6h0c-10.87-6.89-65.41-38.38-76.82-44.35-27.59-14.44-57.13-6.72-71.85,18.76-14.71,25.48-6.62,54.93,19.68,71.6,10.88,6.89,65.41,38.38,76.82,44.35h0c27.59,14.44,57.13,6.72,71.85-18.76Z"/>
      <path class="cls-2" d="M803.97,297.54h0c-26.3,16.67-34.39,46.12-19.68,71.6,14.71,25.48,44.26,33.2,71.85,18.76h0c11.41-5.97,65.94-37.45,76.82-44.35,26.3-16.68,34.39-46.12,19.67-71.6-14.71-25.48-44.26-33.2-71.85-18.76-11.41,5.97-65.95,37.46-76.82,44.35Z"/>
      <path class="cls-2" d="M698.85,87.83h0c-6.89,10.88-41.5,70.82-47.47,82.23-14.44,27.59-6.72,57.13,18.76,71.85,25.48,14.71,54.93,6.62,71.6-19.68,6.9-10.88,41.5-70.82,47.47-82.23h0c14.44-27.59,6.72-57.14-18.76-71.85-25.48-14.71-54.93-6.62-71.6,19.68Z"/>
      <path class="cls-2" d="M953.18,479.45h0c-12.86-.53-69.99-.53-82.86,0-31.11,1.29-52.84,22.74-52.84,52.17h188.54c0-29.43-21.73-50.88-52.84-52.17Z"/>
      <path class="cls-2" d="M135.7,479.45c-12.87-.53-70-.53-82.86,0h0c-31.11,1.29-52.84,22.74-52.84,52.17h188.54c0-29.43-21.73-50.88-52.84-52.17Z"/>
    </g>
  </g>
</svg>