<?xml version="1.0" encoding="UTF-8"?>
<svg id="Camada_2" data-name="Camada 2" xmlns="http://www.w3.org/2000/svg" viewBox="0 0 414.2 41.3">
  <defs>
    <style>
      .cls-1 {
        fill: #eff3f3;
        stroke-width: 0px;
      }
    </style>
  </defs>
  <g id="Rodape">
    <g>
      <g>
        <path class="cls-1" d="M70.81,15.68h-5.5c-1.13,0-1.43-.68-1.43-1.2,0-.6.3-1.2,1.43-1.17h18.27V1.08h-21.58c-7.6,0-13.55,4.97-13.55,12.05s4.82,12.27,13.63,12.27h6.32c.98,0,1.43.53,1.43,1.2,0,.6-.38,1.2-1.43,1.2h-18.87v12.42h21.21c8.73,0,13.93-5.19,13.93-12.42s-4.82-12.12-13.85-12.12Z"/>
        <path class="cls-1" d="M113.83,1.08v21.32c0,1.71-1.23,3.07-3.13,3.07s-3.13-1.35-3.13-3.07V1.08h-18.11v27.2c0,8.28,4.22,13.02,10.84,13.02,5.72,0,10.92-3.39,13.55-8.96v7.88h18.08V1.08h-18.11Z"/>
        <path class="cls-1" d="M155.52,40.23v-21.32c0-1.71,1.23-3.07,3.13-3.07s3.13,1.35,3.13,3.07v21.32h18.11V13.02C179.89,4.74,175.68,0,169.05,0,163.33,0,158.13,3.39,155.5,8.96V1.08h-18.08v39.15h18.11Z"/>
        <path class="cls-1" d="M205.63,0C192.22,0,183.81,8.59,183.81,20.65s8.41,20.65,21.83,20.65,21.83-8.44,21.83-20.65S218.97,0,205.63,0ZM205.63,25.78c-3.18,0-5.23-2.26-5.23-5.13s2.05-5.13,5.23-5.13,5.23,2.26,5.23,5.13-2.05,5.13-5.23,5.13Z"/>
        <g>
          <path class="cls-1" d="M21.83,9.12c-7.5,0-12.2,4.72-12.2,11.54s4.7,11.54,12.2,11.54,12.2-4.72,12.2-11.54-4.7-11.54-12.2-11.54ZM27.74,25.87c-1.36,1.31-3.41,2.01-5.92,2.01s-4.55-.69-5.92-2.01c-1.28-1.24-1.96-3.04-1.96-5.22s.68-3.98,1.96-5.22c1.36-1.31,3.41-2.01,5.92-2.01s4.55.69,5.92,2.01c1.28,1.24,1.96,3.04,1.96,5.22s-.68,3.98-1.96,5.22Z"/>
          <path class="cls-1" d="M8.18,20.66c0-1.21-.89-2.09-2.17-2.14-.53-.02-3.32-.02-3.84,0h0C.89,18.57,0,19.45,0,20.66c0,1.21.89,2.09,2.17,2.14h0c.53.02,3.32.02,3.84,0,1.28-.05,2.17-.93,2.17-2.14Z"/>
          <path class="cls-1" d="M35.47,20.66c0-1.21.89-2.09,2.17-2.14.53-.02,3.32-.02,3.84,0h0c1.28.05,2.17.93,2.17,2.14s-.89,2.09-2.17,2.14h0c-.53.02-3.32.02-3.84,0-1.28-.05-2.17-.93-2.17-2.14Z"/>
          <path class="cls-1" d="M33.72,13.79c-.6-1.05-.27-2.26.81-2.94.45-.28,2.91-1.7,3.38-1.95h0c1.13-.59,2.35-.28,2.95.77.6,1.05.27,2.26-.81,2.94h0c-.45.28-2.91,1.7-3.38,1.95-1.13.59-2.35.28-2.95-.77Z"/>
          <path class="cls-1" d="M9.93,27.52c-.6-1.05-1.82-1.36-2.95-.77-.47.25-2.93,1.67-3.38,1.95h0c-1.08.68-1.41,1.89-.81,2.94s1.82,1.36,2.95.77h0c.47-.25,2.93-1.67,3.38-1.95,1.08-.68,1.41-1.89.81-2.94Z"/>
          <path class="cls-1" d="M32.49,2.19c-1.05-.6-2.26-.27-2.94.81-.28.45-1.58,2.69-1.82,3.15h0c-.59,1.13-.28,2.35.77,2.95,1.05.6,2.26.27,2.94-.81h0c.28-.45,1.58-2.69,1.82-3.15.59-1.13.28-2.35-.77-2.95Z"/>
          <path class="cls-1" d="M11.17,39.12c-1.05-.6-1.36-1.82-.77-2.95.25-.47,1.54-2.71,1.82-3.15h0c.68-1.08,1.89-1.41,2.94-.81s1.36,1.82.77,2.95h0c-.25.47-1.54,2.71-1.82,3.15-.68,1.08-1.89,1.41-2.94.81Z"/>
          <path class="cls-1" d="M11.17,2.19c1.05-.6,2.26-.27,2.94.81.28.45,1.58,2.69,1.82,3.15h0c.59,1.13.28,2.35-.77,2.95s-2.26.27-2.94-.81h0c-.28-.45-1.58-2.69-1.82-3.15-.59-1.13-.28-2.35.77-2.95Z"/>
          <path class="cls-1" d="M32.49,39.12c1.05-.6,1.36-1.82.77-2.95-.25-.47-1.54-2.71-1.82-3.15h0c-.68-1.08-1.89-1.41-2.94-.81s-1.36,1.82-.77,2.95h0c.25.47,1.54,2.71,1.82,3.15.68,1.08,1.89,1.41,2.94.81Z"/>
          <path class="cls-1" d="M9.93,13.79c.6-1.05.27-2.26-.81-2.94-.45-.28-2.91-1.7-3.38-1.95h0c-1.13-.59-2.35-.28-2.95.77s-.27,2.26.81,2.94h0c.45.28,2.91,1.7,3.38,1.95,1.13.59,2.35.28,2.95-.77Z"/>
          <path class="cls-1" d="M33.72,27.52c.6-1.05,1.82-1.36,2.95-.77.47.25,2.93,1.67,3.38,1.95h0c1.08.68,1.41,1.89.81,2.94-.6,1.05-1.82,1.36-2.95.77h0c-.47-.25-2.93-1.67-3.38-1.95-1.08-.68-1.41-1.89-.81-2.94Z"/>
          <path class="cls-1" d="M21.83,7.74c1.21,0,2.09-.89,2.14-2.17.02-.53.02-2.87,0-3.4h0c-.05-1.28-.93-2.17-2.14-2.17s-2.09.89-2.14,2.17h0c-.02.53-.02,2.87,0,3.4.05,1.28.93,2.17,2.14,2.17Z"/>
          <path class="cls-1" d="M21.83,33.56c1.21,0,2.09.89,2.14,2.17.02.53.02,2.87,0,3.4h0c-.05,1.28-.93,2.17-2.14,2.17s-2.09-.89-2.14-2.17h0c-.02-.53-.02-2.87,0-3.4.05-1.28.93-2.17,2.14-2.17Z"/>
        </g>
      </g>
      <path class="cls-1" d="M258.7,18.77v-.11c3.11-.61,6.32-3.72,6.32-7.76,0-7.99-7.1-9.82-14.14-9.82h-14.03v39.15h13.48c7.38,0,15.97-2.27,15.97-12.14,0-5.6-3.6-8.76-7.6-9.32ZM244.67,7.07h4.49c4.99,0,8.21.89,8.21,4.88s-3.22,4.82-7.82,4.82h-4.88V7.07ZM249.88,34.29h-5.21v-11.87h5.16c4.1,0,8.43.94,8.43,5.49,0,4.82-3.11,6.38-8.37,6.38Z"/>
      <path class="cls-1" d="M299.21,35.01c-1.28,0-2.16-.61-5.43-5.82-1.72-2.72-3.66-6.16-4.21-7.1,5.16-1.05,8.76-4.71,8.76-10.15,0-9.7-8.87-11.09-16.52-11.09h-11.98v39.15h7.82v-15.97h3.11c.89,0,1.72.22,2.61,1.89,1,1.94,2.94,5.6,4.38,8.21,2.55,4.71,4.66,6.32,8.76,6.32,1.55,0,2.77-.17,4.27-.55l-.33-5.16c-.28.17-.78.28-1.22.28ZM282.35,18.21h-4.71V6.95h4.27c3.77,0,8.32.61,8.32,5.43s-4.21,5.82-7.87,5.82Z"/>
      <path class="cls-1" d="M317.09,1.08c-7.26,11.46-11.04,26.03-13.2,39.15h7.82c.5-3.32,1.16-6.76,2-10.19h15.42c.89,3.43,1.5,6.87,1.89,10.19h8.65c-2.33-13.35-5.93-27.24-13.31-39.15h-9.26ZM314.88,24.11c1.61-6.09,3.77-11.91,6.49-17.11h.11c2.72,5.26,4.82,11.13,6.49,17.11h-13.09Z"/>
      <path class="cls-1" d="M359.15,17.53l-2.99-1.34c-2.38-1.06-5.1-2.39-5.1-5.29,0-2.12,1.39-4.84,6.1-4.84,3.05,0,5.82.89,8.1,2.39l2.38-5.96C364.53.72,360.71,0,357.16,0,348.9,0,343.41,5.01,343.41,11.69c0,6.29,3.99,9.13,9.09,11.3l3.05,1.28c2.5,1.06,5.27,2.39,5.27,5.57,0,3.67-3.05,5.23-6.82,5.23-3.27,0-6.77-1.22-8.93-2.73l-2.27,6.12c2.55,1.5,6.27,2.84,10.81,2.84,7.76,0,14.92-3.51,14.92-12.52,0-6.29-4.33-9.02-9.37-11.24Z"/>
      <rect class="cls-1" x="374.4" y="1.08" width="7.82" height="39.15"/>
      <polygon class="cls-1" points="397.87 33.85 397.87 1.08 390.05 1.08 390.05 40.23 414.2 40.23 414.2 33.85 397.87 33.85"/>
    </g>
  </g>
</svg>