<?xml version="1.0" encoding="UTF-8"?>
<svg id="Camada_2" data-name="Camada 2" xmlns="http://www.w3.org/2000/svg" viewBox="0 0 444.68 44.34">
  <defs>
    <style>
      .cls-1 {
        fill: #012340;
        stroke-width: 0px;
      }
    </style>
  </defs>
  <g id="Menu">
    <g>
      <g>
        <path class="cls-1" d="M76.02,16.84h-5.9c-1.21,0-1.54-.73-1.54-1.29,0-.65.32-1.29,1.54-1.25h19.62V1.16h-23.17c-8.16,0-14.55,5.33-14.55,12.93s5.17,13.18,14.63,13.18h6.79c1.05,0,1.54.57,1.54,1.29,0,.65-.4,1.29-1.54,1.29h-20.26v13.34h22.77c9.38,0,14.95-5.58,14.95-13.34s-5.17-13.01-14.87-13.01Z"/>
        <path class="cls-1" d="M122.2,1.16v22.89c0,1.84-1.32,3.29-3.36,3.29s-3.36-1.45-3.36-3.29V1.16h-19.44v29.2c0,8.89,4.53,13.98,11.64,13.98,6.14,0,11.72-3.64,14.55-9.62v8.46h19.41V1.16h-19.44Z"/>
        <path class="cls-1" d="M166.97,43.19v-22.89c0-1.84,1.32-3.29,3.36-3.29s3.36,1.45,3.36,3.29v22.89h19.44V13.98C193.13,5.09,188.6,0,181.49,0,175.35,0,169.77,3.64,166.94,9.62V1.16h-19.41v42.03h19.44Z"/>
        <path class="cls-1" d="M220.77,0C206.37,0,197.33,9.22,197.33,22.17s9.03,22.17,23.43,22.17,23.43-9.06,23.43-22.17S235.09,0,220.77,0ZM220.77,27.67c-3.42,0-5.61-2.43-5.61-5.5s2.2-5.5,5.61-5.5,5.61,2.43,5.61,5.5-2.2,5.5-5.61,5.5Z"/>
        <g>
          <path class="cls-1" d="M23.43,9.79c-8.05,0-13.1,5.06-13.1,12.39s5.05,12.39,13.1,12.39,13.1-5.06,13.1-12.39-5.05-12.39-13.1-12.39ZM29.79,27.78c-1.46,1.41-3.66,2.15-6.35,2.15s-4.89-.74-6.35-2.15c-1.38-1.33-2.11-3.26-2.11-5.6s.73-4.27,2.11-5.6c1.46-1.41,3.66-2.15,6.35-2.15s4.89.74,6.35,2.15c1.38,1.33,2.11,3.26,2.11,5.6s-.73,4.27-2.11,5.6Z"/>
          <path class="cls-1" d="M8.79,22.18c0-1.3-.96-2.24-2.33-2.3-.57-.02-3.56-.02-4.13,0h0C.96,19.93,0,20.88,0,22.18c0,1.3.96,2.24,2.33,2.3h0c.57.02,3.56.02,4.13,0,1.37-.06,2.33-1,2.33-2.3Z"/>
          <path class="cls-1" d="M38.08,22.18c0-1.3.96-2.24,2.33-2.3.57-.02,3.56-.02,4.13,0h0c1.37.06,2.33,1,2.33,2.3s-.96,2.24-2.33,2.3h0c-.57.02-3.56.02-4.13,0-1.37-.06-2.33-1-2.33-2.3Z"/>
          <path class="cls-1" d="M36.2,14.8c-.65-1.12-.29-2.42.87-3.16.48-.3,3.12-1.83,3.62-2.09h0c1.22-.64,2.52-.3,3.17.83s.29,2.42-.87,3.16h0c-.48.3-3.12,1.83-3.62,2.09-1.22.64-2.52.3-3.17-.83Z"/>
          <path class="cls-1" d="M10.66,29.55c-.65-1.12-1.95-1.46-3.17-.83-.5.26-3.15,1.79-3.62,2.09h0c-1.16.73-1.52,2.03-.87,3.16s1.95,1.46,3.17.83h0c.5-.26,3.14-1.79,3.62-2.09,1.16-.73,1.52-2.03.87-3.16Z"/>
          <path class="cls-1" d="M34.88,2.35c-1.12-.65-2.42-.29-3.16.87-.3.48-1.69,2.88-1.95,3.39h0c-.64,1.22-.3,2.52.83,3.17,1.12.65,2.42.29,3.16-.87h0c.3-.48,1.69-2.88,1.95-3.39.64-1.22.3-2.52-.83-3.17Z"/>
          <path class="cls-1" d="M11.99,42c-1.12-.65-1.46-1.95-.83-3.17.26-.5,1.65-2.91,1.95-3.39h0c.73-1.16,2.03-1.52,3.16-.87s1.46,1.95.83,3.17h0c-.26.5-1.65,2.91-1.95,3.39-.73,1.16-2.03,1.52-3.16.87Z"/>
          <path class="cls-1" d="M11.99,2.35c1.12-.65,2.42-.29,3.16.87.3.48,1.69,2.88,1.95,3.39h0c.64,1.22.3,2.52-.83,3.17s-2.42.29-3.16-.87h0c-.3-.48-1.69-2.88-1.95-3.39-.64-1.22-.3-2.52.83-3.17Z"/>
          <path class="cls-1" d="M34.88,42c1.12-.65,1.46-1.95.83-3.17-.26-.5-1.65-2.91-1.95-3.39h0c-.73-1.16-2.03-1.52-3.16-.87-1.12.65-1.46,1.95-.83,3.17h0c.26.5,1.65,2.91,1.95,3.39.73,1.16,2.03,1.52,3.16.87Z"/>
          <path class="cls-1" d="M10.66,14.8c.65-1.12.29-2.42-.87-3.16-.48-.3-3.12-1.83-3.62-2.09h0c-1.22-.64-2.52-.3-3.17.83s-.29,2.42.87,3.16h0c.48.3,3.12,1.83,3.62,2.09,1.22.64,2.52.3,3.17-.83Z"/>
          <path class="cls-1" d="M36.2,29.55c.65-1.12,1.95-1.46,3.17-.83.5.26,3.15,1.79,3.62,2.09h0c1.16.73,1.52,2.03.87,3.16s-1.95,1.46-3.17.83h0c-.5-.26-3.14-1.79-3.62-2.09-1.16-.73-1.52-2.03-.87-3.16Z"/>
          <path class="cls-1" d="M23.43,8.31c1.3,0,2.24-.96,2.3-2.33.02-.57.02-3.09,0-3.65h0c-.06-1.37-1-2.33-2.3-2.33s-2.24.96-2.3,2.33h0c-.02.57-.02,3.08,0,3.65.06,1.37,1,2.33,2.3,2.33Z"/>
          <path class="cls-1" d="M23.43,36.03c1.3,0,2.24.96,2.3,2.33.02.57.02,3.09,0,3.65h0c-.06,1.37-1,2.33-2.3,2.33s-2.24-.96-2.3-2.33h0c-.02-.57-.02-3.08,0-3.65.06-1.37,1-2.33,2.3-2.33Z"/>
        </g>
      </g>
      <path class="cls-1" d="M277.74,20.15v-.12c3.33-.65,6.79-3.99,6.79-8.33,0-8.57-7.62-10.54-15.18-10.54h-15.06v42.03h14.47c7.92,0,17.15-2.44,17.15-13.04,0-6.01-3.87-9.41-8.16-10ZM262.68,7.59h4.82c5.36,0,8.81.95,8.81,5.24s-3.45,5.18-8.39,5.18h-5.24V7.59ZM268.28,36.82h-5.6v-12.74h5.54c4.41,0,9.05,1.01,9.05,5.89,0,5.18-3.33,6.85-8.99,6.85Z"/>
      <path class="cls-1" d="M321.23,37.59c-1.37,0-2.32-.65-5.83-6.25-1.85-2.92-3.93-6.61-4.52-7.62,5.54-1.13,9.41-5.06,9.41-10.89,0-10.42-9.53-11.91-17.74-11.91h-12.86v42.03h8.39v-17.15h3.33c.95,0,1.85.24,2.8,2.02,1.07,2.08,3.16,6.01,4.7,8.81,2.74,5.06,5,6.79,9.41,6.79,1.67,0,2.98-.18,4.58-.6l-.36-5.54c-.3.18-.83.3-1.31.3ZM303.14,19.55h-5.06V7.47h4.58c4.05,0,8.93.65,8.93,5.83s-4.52,6.25-8.45,6.25Z"/>
      <path class="cls-1" d="M340.43,1.16c-7.8,12.31-11.85,27.94-14.17,42.03h8.39c.54-3.57,1.25-7.25,2.14-10.94h16.55c.95,3.69,1.61,7.37,2.02,10.94h9.29c-2.5-14.33-6.37-29.25-14.29-42.03h-9.94ZM338.05,25.89c1.73-6.54,4.05-12.78,6.97-18.37h.12c2.92,5.65,5.18,11.95,6.97,18.37h-14.05Z"/>
      <path class="cls-1" d="M385.59,18.82l-3.21-1.43c-2.56-1.14-5.48-2.57-5.48-5.68,0-2.27,1.49-5.2,6.55-5.2,3.27,0,6.25.96,8.69,2.57l2.56-6.39C391.36.78,387.26,0,383.45,0,374.57,0,368.68,5.38,368.68,12.55c0,6.75,4.29,9.8,9.76,12.13l3.27,1.37c2.68,1.14,5.66,2.57,5.66,5.98,0,3.94-3.27,5.62-7.32,5.62-3.51,0-7.26-1.31-9.59-2.93l-2.44,6.57c2.74,1.61,6.73,3.05,11.61,3.05,8.33,0,16.01-3.76,16.01-13.45,0-6.75-4.64-9.68-10.06-12.07Z"/>
      <rect class="cls-1" x="401.95" y="1.16" width="8.39" height="42.03"/>
      <polygon class="cls-1" points="427.15 36.34 427.15 1.16 418.76 1.16 418.76 43.19 444.68 43.19 444.68 36.34 427.15 36.34"/>
    </g>
  </g>
</svg>