<?xml version="1.0" encoding="UTF-8"?>
<svg id="Camada_2" data-name="Camada 2" xmlns="http://www.w3.org/2000/svg" viewBox="0 0 44.36 41.96">
  <defs>
    <style>
      .cls-1 {
        fill: #eff3f3;
        stroke-width: 0px;
      }
    </style>
  </defs>
  <g id="Rodape">
    <g>
      <path class="cls-1" d="M22.18,9.91c-6.11,0-11.08,4.97-11.08,11.07,0,2.09.58,4.13,1.69,5.89l.26.42-1.12,4.09,4.19-1.1.4.24c1.7,1.01,3.65,1.54,5.64,1.54h0c6.1,0,11.07-4.97,11.07-11.07,0-2.96-1.15-5.74-3.24-7.83-2.09-2.09-4.87-3.25-7.83-3.25ZM28.7,25.73c-.28.78-1.61,1.49-2.25,1.58-.57.09-1.3.12-2.1-.13-.48-.15-1.1-.36-1.9-.7-3.34-1.44-5.52-4.8-5.69-5.03-.17-.22-1.36-1.8-1.36-3.44s.86-2.44,1.17-2.78c.3-.33.67-.42.89-.42s.44,0,.64.01c.2,0,.48-.08.75.57.28.67.94,2.3,1.03,2.47.08.17.14.36.03.58-.11.22-.17.36-.33.55s-.35.43-.5.58c-.17.17-.34.35-.15.68.19.33.86,1.42,1.85,2.31,1.27,1.13,2.34,1.49,2.68,1.65.33.17.53.14.72-.08s.83-.97,1.05-1.3c.22-.33.44-.28.75-.17.31.11,1.94.92,2.27,1.08s.55.25.64.39c.08.14.08.81-.19,1.58Z"/>
      <path class="cls-1" d="M22.18,0C8.55,0,0,8.58,0,20.98s8.55,20.98,22.18,20.98,22.18-8.58,22.18-20.98S35.81,0,22.18,0ZM22.18,34.3h0c-2.23,0-4.42-.56-6.37-1.62l-7.06,1.85,1.89-6.9c-1.17-2.02-1.78-4.31-1.78-6.66,0-7.34,5.98-13.32,13.32-13.32,3.56,0,6.91,1.39,9.42,3.91s3.9,5.86,3.9,9.42c0,7.34-5.98,13.32-13.32,13.32Z"/>
    </g>
  </g>
</svg>