<?xml version="1.0" encoding="UTF-8"?>
<svg id="Camada_2" data-name="Camada 2" xmlns="http://www.w3.org/2000/svg" viewBox="0 0 44.36 41.96">
  <defs>
    <style>
      .cls-1 {
        fill: #eff3f3;
        stroke-width: 0px;
      }
    </style>
  </defs>
  <g id="Rodape">
    <g>
      <g>
        <path class="cls-1" d="M22.18,0C8.55,0,0,8.58,0,20.98c0,11.68,7.58,19.96,19.84,20.89.76.06,1.54.09,2.33.09s1.57-.03,2.33-.09c12.26-.93,19.84-9.21,19.84-20.89C44.36,8.58,35.81,0,22.18,0ZM22.18,34.22c-3.59,0-4.04-.02-5.45-.08-1.41-.06-2.37-.29-3.21-.61-.87-.34-1.61-.79-2.34-1.53-.74-.73-1.19-1.47-1.53-2.34-.33-.84-.55-1.8-.61-3.21-.06-1.41-.08-1.86-.08-5.45s.02-4.04.08-5.45c.06-1.41.29-2.37.61-3.21.34-.87.79-1.61,1.53-2.34.74-.73,1.47-1.19,2.34-1.53.84-.33,1.8-.55,3.21-.61,1.41-.06,1.86-.08,5.45-.08s4.04.02,5.45.08c1.41.06,2.37.29,3.21.61.87.34,1.61.79,2.34,1.53.74.74,1.19,1.47,1.53,2.34.33.84.55,1.8.61,3.21.06,1.41.08,1.86.08,5.45s-.02,4.04-.08,5.45c-.06,1.41-.29,2.37-.61,3.21-.34.87-.79,1.61-1.53,2.34-.74.74-1.47,1.19-2.34,1.53-.84.33-1.8.55-3.21.61-1.41.06-1.86.08-5.45.08Z"/>
        <path class="cls-1" d="M31.5,30.32c.46-.46.75-.9.99-1.52.18-.47.4-1.17.46-2.46.06-1.39.08-1.81.08-5.34s-.01-3.95-.08-5.34c-.06-1.29-.27-1.99-.46-2.46-.24-.62-.53-1.06-.99-1.52-.46-.46-.9-.75-1.52-.99-.47-.18-1.17-.4-2.46-.46-1.39-.06-1.81-.08-5.34-.08s-3.95.01-5.34.08c-1.29.06-1.99.27-2.46.46-.62.24-1.06.53-1.52.99s-.75.9-.99,1.52c-.18.47-.4,1.17-.46,2.46-.06,1.39-.08,1.81-.08,5.34s.01,3.95.08,5.34c.06,1.29.27,1.99.46,2.46.24.62.53,1.06.99,1.52.46.46.9.75,1.52.99.47.18,1.17.4,2.46.46,1.39.06,1.81.08,5.34.08s3.95-.01,5.34-.08c1.29-.06,1.99-.27,2.46-.46.62-.24,1.06-.53,1.52-.99ZM22.18,27.79c-3.75,0-6.79-3.04-6.79-6.79s3.04-6.79,6.79-6.79,6.79,3.04,6.79,6.79-3.04,6.79-6.79,6.79ZM27.65,13.94c0-.88.71-1.59,1.59-1.59s1.59.71,1.59,1.59-.71,1.59-1.59,1.59-1.59-.71-1.59-1.59Z"/>
      </g>
      <circle class="cls-1" cx="22.18" cy="21" r="4.41"/>
    </g>
  </g>
</svg>