<?xml version="1.0" encoding="UTF-8"?>
<svg id="Camada_2" data-name="Camada 2" xmlns="http://www.w3.org/2000/svg" viewBox="0 0 44.36 41.96">
  <defs>
    <style>
      .cls-1 {
        fill: #eff3f3;
        stroke-width: 0px;
      }
    </style>
  </defs>
  <g id="Rodape">
    <path class="cls-1" d="M22.18,0C8.55,0,0,8.58,0,20.98s8.55,20.98,22.18,20.98,22.18-8.58,22.18-20.98S35.81,0,22.18,0ZM15.25,32.45c-1.49-.02-2.99-.01-4.48,0-.24,0-.31-.06-.31-.31,0-5.32,0-10.65,0-15.97,0-.22.05-.3.29-.3,1.52,0,3.03.01,4.55,0,.29,0,.33.11.33.36,0,2.65,0,5.3,0,7.95s0,5.26,0,7.89c0,.29-.07.38-.37.38ZM13.04,13.6c-1.63,0-2.98-1.35-2.98-2.97,0-1.64,1.35-3,2.99-2.99,1.63,0,2.98,1.34,2.98,2.97,0,1.65-1.34,3-2.99,3ZM34.95,32.11c0,.27-.08.34-.34.34-1.49-.01-2.99-.01-4.48,0-.26,0-.32-.08-.32-.33,0-2.76.01-5.52,0-8.28,0-.69-.05-1.38-.24-2.06-.36-1.24-1.24-1.87-2.54-1.8-1.77.09-2.69.97-2.92,2.77-.05.43-.08.86-.08,1.29,0,2.68,0,5.37,0,8.05,0,.27-.07.35-.34.34-1.51-.01-3.01-.01-4.52,0-.24,0-.31-.06-.31-.31,0-5.32,0-10.63,0-15.95,0-.26.09-.32.33-.32,1.43.01,2.86.01,4.29,0,.26,0,.33.08.33.33-.01.63,0,1.27,0,1.91.34-.39.63-.78.98-1.11,1.09-1.03,2.38-1.54,3.88-1.53.83,0,1.64.07,2.44.3,1.82.53,2.88,1.78,3.39,3.56.38,1.34.45,2.71.45,4.08,0,2.9,0,5.8,0,8.7Z"/>
  </g>
</svg>