<?xml version="1.0" encoding="UTF-8"?>
<svg id="Camada_1" data-name="Camada 1" xmlns="http://www.w3.org/2000/svg" viewBox="0 0 1338 1266">
  <defs>
    <style>
      .cls-1 {
        fill: #012340;
        stroke-width: 0px;
      }
    </style>
  </defs>
  <path class="cls-1" d="M669,279.49c-229.79,0-373.9,144.58-373.9,353.69s144.11,353.69,373.9,353.69,373.9-144.57,373.9-353.69-144.11-353.69-373.9-353.69ZM850.39,793.08c-41.81,40.22-104.53,61.47-181.39,61.47s-139.58-21.26-181.39-61.47c-39.38-37.88-60.19-93.17-60.19-159.9s20.81-122.02,60.19-159.9c41.81-40.22,104.53-61.47,181.39-61.47s139.58,21.26,181.39,61.47c39.38,37.88,60.19,93.17,60.19,159.9s-20.81,122.02-60.19,159.9Z"/>
  <path class="cls-1" d="M250.84,633.18c0-37.03-27.34-64.03-66.5-65.66-16.19-.67-101.66-.67-117.85,0h0C27.34,569.15,0,596.15,0,633.18c0,37.03,27.34,64.03,66.5,65.65h0c16.19.67,101.65.67,117.85,0,39.15-1.62,66.5-28.62,66.5-65.65Z"/>
  <path class="cls-1" d="M1087.16,633.18c0-37.03,27.34-64.03,66.5-65.66,16.19-.67,101.66-.67,117.85,0h0c39.15,1.63,66.5,28.62,66.5,65.66s-27.34,64.03-66.5,65.65h0c-16.19.67-101.65.67-117.85,0-39.15-1.62-66.5-28.62-66.5-65.65Z"/>
  <path class="cls-1" d="M1033.59,422.69c-18.52-32.07-8.33-69.12,24.76-90.11,13.69-8.68,89.12-52.23,103.48-59.74h0c34.72-18.17,71.9-8.46,90.41,23.61,18.52,32.07,8.33,69.12-24.76,90.1h0c-13.68,8.67-89.12,52.23-103.48,59.74-34.72,18.17-71.9,8.46-90.41-23.61Z"/>
  <path class="cls-1" d="M304.42,843.67c-18.52-32.07-55.7-41.78-90.41-23.61-14.36,7.52-89.79,51.07-103.48,59.74h0c-33.09,20.98-43.27,58.04-24.76,90.11,18.52,32.07,55.7,41.78,90.41,23.61h0c14.35-7.51,89.79-51.06,103.48-59.74,33.09-20.98,43.28-58.03,24.76-90.1Z"/>
  <path class="cls-1" d="M995.79,67.18c-32.07-18.52-69.12-8.33-90.11,24.76-8.68,13.69-48.3,82.32-55.81,96.67h0c-18.17,34.72-8.46,71.9,23.61,90.42,32.07,18.52,69.12,8.33,90.1-24.76h0c8.67-13.68,48.3-82.31,55.81-96.67,18.17-34.72,8.46-71.9-23.61-90.41Z"/>
  <path class="cls-1" d="M342.23,1199.17c-32.07-18.52-41.78-55.7-23.61-90.41,7.52-14.36,47.14-82.99,55.81-96.67h0c20.98-33.09,58.04-43.28,90.11-24.76,32.07,18.52,41.78,55.7,23.61,90.41h0c-7.51,14.35-47.13,82.98-55.81,96.67-20.98,33.09-58.03,43.28-90.1,24.76Z"/>
  <path class="cls-1" d="M342.23,67.18c32.07-18.52,69.12-8.33,90.11,24.76,8.68,13.69,48.3,82.32,55.81,96.67h0c18.17,34.72,8.46,71.9-23.61,90.42-32.07,18.52-69.12,8.33-90.1-24.76h0c-8.67-13.68-48.3-82.31-55.81-96.67-18.17-34.72-8.46-71.9,23.61-90.41Z"/>
  <path class="cls-1" d="M995.78,1199.17c32.07-18.52,41.78-55.7,23.61-90.41-7.52-14.36-47.14-82.99-55.81-96.67h0c-20.98-33.09-58.04-43.28-90.11-24.76-32.07,18.52-41.78,55.7-23.61,90.41h0c7.51,14.35,47.13,82.98,55.81,96.67,20.98,33.09,58.03,43.28,90.1,24.76Z"/>
  <path class="cls-1" d="M304.42,422.69c18.52-32.07,8.33-69.12-24.76-90.11-13.69-8.68-89.12-52.23-103.48-59.74h0c-34.72-18.17-71.9-8.46-90.41,23.61-18.52,32.07-8.33,69.12,24.76,90.1h0c13.68,8.67,89.12,52.23,103.48,59.74,34.72,18.17,71.9,8.46,90.41-23.61Z"/>
  <path class="cls-1" d="M1033.59,843.67c18.52-32.07,55.7-41.78,90.41-23.61,14.36,7.52,89.79,51.07,103.48,59.74h0c33.09,20.98,43.27,58.04,24.76,90.11-18.52,32.07-55.7,41.78-90.41,23.61h0c-14.35-7.51-89.79-51.06-103.48-59.74-33.09-20.98-43.28-58.03-24.76-90.1Z"/>
  <path class="cls-1" d="M669,237.26c37.03,0,64.03-27.34,65.66-66.5.67-16.19.67-88.08,0-104.27h0c-1.63-39.15-28.62-66.5-65.66-66.5s-64.03,27.34-65.65,66.5h0c-.67,16.19-.67,88.08,0,104.27,1.62,39.15,28.62,66.5,65.65,66.5Z"/>
  <path class="cls-1" d="M669,1028.74c37.03,0,64.03,27.34,65.66,66.5.67,16.19.67,88.08,0,104.27h0c-1.63,39.15-28.62,66.5-65.66,66.5s-64.03-27.34-65.65-66.5h0c-.67-16.19-.67-88.08,0-104.27,1.62-39.15,28.62-66.5,65.65-66.5Z"/>
</svg>