<?xml version="1.0" encoding="UTF-8"?>
<svg id="Camada_2" data-name="Camada 2" xmlns="http://www.w3.org/2000/svg" viewBox="0 0 229.24 65.63">
  <defs>
    <style>
      .cls-1 {
        fill: #012340;
        stroke-width: 0px;
      }
    </style>
  </defs>
  <g id="SECAO-03-Soluções">
    <g>
      <g>
        <path class="cls-1" d="M91.6,65.24c-2.62,0-3.96-1.03-5.59-4.03-.92-1.66-2.16-4-2.79-5.24-.57-1.06-1.1-1.2-1.66-1.2h-1.98v10.19h-4.99v-24.97h7.64c4.88,0,10.54.88,10.54,7.07,0,3.47-2.3,5.8-5.59,6.47.35.6,1.59,2.79,2.69,4.53,2.09,3.33,2.65,3.71,3.47,3.71.28,0,.6-.07.78-.18l.21,3.29c-.96.25-1.73.35-2.72.35ZM82.3,43.88h-2.72v7.18h3.01c2.33,0,5.02-.71,5.02-3.71s-2.9-3.47-5.31-3.47Z"/>
        <path class="cls-1" d="M105.18,56.01h-2.55v8.95h-4.99v-24.97h7.25c5.59,0,10.54,1.49,10.54,7.68,0,7.11-5.87,8.35-10.26,8.35ZM105.18,43.88h-2.55v8.28h2.55c2.44,0,5.24-.74,5.24-4.17,0-3.61-3.15-4.1-5.24-4.1Z"/>
        <path class="cls-1" d="M129.2,65.63c-6.37,0-11.5-3.75-11.5-13.19s6.23-13.19,11.57-13.19c6.37,0,11.5,3.75,11.5,13.19s-6.23,13.19-11.57,13.19ZM129.24,43.31c-4.85,0-6.4,4.32-6.4,9.13s1.63,9.13,6.4,9.13,6.37-4.32,6.37-9.13-1.59-9.13-6.37-9.13Z"/>
      </g>
      <g>
        <g>
          <path class="cls-1" d="M34.67,14.49c-11.91,0-19.38,7.49-19.38,18.33s7.47,18.33,19.38,18.33,19.38-7.49,19.38-18.33-7.47-18.33-19.38-18.33ZM44.08,41.1c-2.17,2.08-5.42,3.19-9.4,3.19s-7.23-1.1-9.4-3.19c-2.04-1.96-3.12-4.83-3.12-8.29s1.08-6.32,3.12-8.29c2.17-2.08,5.42-3.19,9.4-3.19s7.23,1.1,9.4,3.19c2.04,1.96,3.12,4.83,3.12,8.29s-1.08,6.32-3.12,8.29Z"/>
          <path class="cls-1" d="M13,32.82c0-1.92-1.42-3.32-3.45-3.4-.84-.03-5.27-.03-6.11,0h0C1.42,29.5,0,30.9,0,32.82c0,1.92,1.42,3.32,3.45,3.4h0c.84.03,5.27.03,6.11,0,2.03-.08,3.45-1.48,3.45-3.4Z"/>
          <path class="cls-1" d="M56.35,32.82c0-1.92,1.42-3.32,3.45-3.4.84-.03,5.27-.03,6.11,0h0c2.03.08,3.45,1.48,3.45,3.4s-1.42,3.32-3.45,3.4h0c-.84.03-5.27.03-6.11,0-2.03-.08-3.45-1.48-3.45-3.4Z"/>
          <path class="cls-1" d="M53.57,21.91c-.96-1.66-.43-3.58,1.28-4.67.71-.45,4.62-2.71,5.36-3.1h0c1.8-.94,3.73-.44,4.69,1.22.96,1.66.43,3.58-1.28,4.67h0c-.71.45-4.62,2.71-5.36,3.1-1.8.94-3.73.44-4.69-1.22Z"/>
          <path class="cls-1" d="M15.78,43.73c-.96-1.66-2.89-2.17-4.69-1.22-.74.39-4.65,2.65-5.36,3.1h0c-1.72,1.09-2.24,3.01-1.28,4.67s2.89,2.17,4.69,1.22h0c.74-.39,4.65-2.65,5.36-3.1,1.72-1.09,2.24-3.01,1.28-4.67Z"/>
          <path class="cls-1" d="M51.61,3.48c-1.66-.96-3.58-.43-4.67,1.28-.45.71-2.5,4.27-2.89,5.01h0c-.94,1.8-.44,3.73,1.22,4.69,1.66.96,3.58.43,4.67-1.28h0c.45-.71,2.5-4.27,2.89-5.01.94-1.8.44-3.73-1.22-4.69Z"/>
          <path class="cls-1" d="M17.74,62.15c-1.66-.96-2.17-2.89-1.22-4.69.39-.74,2.44-4.3,2.89-5.01h0c1.09-1.72,3.01-2.24,4.67-1.28,1.66.96,2.17,2.89,1.22,4.69h0c-.39.74-2.44,4.3-2.89,5.01-1.09,1.72-3.01,2.24-4.67,1.28Z"/>
          <path class="cls-1" d="M17.74,3.48c1.66-.96,3.58-.43,4.67,1.28.45.71,2.5,4.27,2.89,5.01h0c.94,1.8.44,3.73-1.22,4.69-1.66.96-3.58.43-4.67-1.28h0c-.45-.71-2.5-4.27-2.89-5.01-.94-1.8-.44-3.73,1.22-4.69Z"/>
          <path class="cls-1" d="M51.61,62.15c1.66-.96,2.17-2.89,1.22-4.69-.39-.74-2.44-4.3-2.89-5.01h0c-1.09-1.72-3.01-2.24-4.67-1.28-1.66.96-2.17,2.89-1.22,4.69h0c.39.74,2.44,4.3,2.89,5.01,1.09,1.72,3.01,2.24,4.67,1.28Z"/>
          <path class="cls-1" d="M15.78,21.91c.96-1.66.43-3.58-1.28-4.67-.71-.45-4.62-2.71-5.36-3.1h0c-1.8-.94-3.73-.44-4.69,1.22-.96,1.66-.43,3.58,1.28,4.67h0c.71.45,4.62,2.71,5.36,3.1,1.8.94,3.73.44,4.69-1.22Z"/>
          <path class="cls-1" d="M53.57,43.73c.96-1.66,2.89-2.17,4.69-1.22.74.39,4.65,2.65,5.36,3.1h0c1.72,1.09,2.24,3.01,1.28,4.67-.96,1.66-2.89,2.17-4.69,1.22h0c-.74-.39-4.65-2.65-5.36-3.1-1.72-1.09-2.24-3.01-1.28-4.67Z"/>
          <path class="cls-1" d="M34.67,12.3c1.92,0,3.32-1.42,3.4-3.45.03-.84.03-4.57,0-5.4h0c-.08-2.03-1.48-3.45-3.4-3.45s-3.32,1.42-3.4,3.45h0c-.03.84-.03,4.57,0,5.4.08,2.03,1.48,3.45,3.4,3.45Z"/>
          <path class="cls-1" d="M34.67,53.32c1.92,0,3.32,1.42,3.4,3.45.03.84.03,4.57,0,5.4h0c-.08,2.03-1.48,3.45-3.4,3.45s-3.32-1.42-3.4-3.45h0c-.03-.84-.03-4.57,0-5.4.08-2.03,1.48-3.45,3.4-3.45Z"/>
        </g>
        <g>
          <path class="cls-1" d="M93.08,13.63h-4.78c-.98,0-1.24-.59-1.24-1.05,0-.52.26-1.05,1.24-1.01h15.88V.94h-18.76c-6.61,0-11.78,4.32-11.78,10.47s4.19,10.67,11.84,10.67h5.5c.85,0,1.24.46,1.24,1.05,0,.52-.33,1.05-1.24,1.05h-16.41v10.8h18.43c7.59,0,12.11-4.52,12.11-10.8s-4.19-10.54-12.04-10.54Z"/>
          <path class="cls-1" d="M130.47.94v18.53c0,1.49-1.07,2.67-2.72,2.67s-2.72-1.18-2.72-2.67V.94h-15.74v23.64c0,7.2,3.66,11.32,9.42,11.32,4.97,0,9.49-2.94,11.78-7.79v6.85h15.72V.94h-15.74Z"/>
          <path class="cls-1" d="M166.72,34.96v-18.53c0-1.49,1.07-2.67,2.72-2.67s2.72,1.18,2.72,2.67v18.53h15.74V11.32C187.9,4.12,184.23,0,178.47,0,173.5,0,168.99,2.94,166.7,7.79V.94h-15.72v34.03h15.74Z"/>
          <path class="cls-1" d="M210.27,0c-11.66,0-18.97,7.47-18.97,17.95s7.31,17.95,18.97,17.95,18.97-7.34,18.97-17.95S221.87,0,210.27,0ZM210.27,22.41c-2.77,0-4.55-1.97-4.55-4.45s1.78-4.45,4.55-4.45,4.55,1.97,4.55,4.45-1.78,4.45-4.55,4.45Z"/>
        </g>
      </g>
    </g>
  </g>
</svg>