<?xml version="1.0" encoding="UTF-8"?>
<svg id="Camada_2" data-name="Camada 2" xmlns="http://www.w3.org/2000/svg" viewBox="0 0 229.24 65.63">
  <defs>
    <style>
      .cls-1 {
        fill: #012340;
        stroke-width: 0px;
      }
    </style>
  </defs>
  <g id="SECAO-03-Soluções">
    <g>
      <g>
        <path class="cls-1" d="M87.42,44.01v21.02h-5.01v-21.02h-7.82v-4.09h20.7v4.09h-7.86Z"/>
        <path class="cls-1" d="M100.94,65.03c-1.64-1.17-2.67-2.85-2.67-6.29v-18.81h15.11v4.09h-10.1v5.76h9.74v3.95h-9.74v4.48c0,1.28.18,2.1.92,2.74h9.71v4.09h-12.98Z"/>
        <path class="cls-1" d="M129.32,65.63c-6.51,0-12.31-4.45-12.31-12.87,0-7.36,4.27-13.51,12.27-13.51,3.06,0,5.41.68,7.22,1.67l-1.71,4.13c-1.6-1-3.45-1.53-5.26-1.53-4.2,0-7.33,2.99-7.33,9.03s3.73,8.82,7.72,8.82c2.06,0,3.91-.68,5.19-1.53l1.42,3.88c-1.92,1.14-4.62,1.92-7.22,1.92Z"/>
        <path class="cls-1" d="M156.49,65.03v-11.27h-10.95v11.27h-5.01v-25.11h5.01v9.78h10.95v-9.78h5.01v25.11h-5.01Z"/>
      </g>
      <g>
        <g>
          <path class="cls-1" d="M34.67,14.49c-11.91,0-19.38,7.49-19.38,18.33s7.47,18.33,19.38,18.33,19.38-7.49,19.38-18.33-7.47-18.33-19.38-18.33ZM44.08,41.1c-2.17,2.08-5.42,3.19-9.4,3.19s-7.23-1.1-9.4-3.19c-2.04-1.96-3.12-4.83-3.12-8.29s1.08-6.32,3.12-8.29c2.17-2.08,5.42-3.19,9.4-3.19s7.23,1.1,9.4,3.19c2.04,1.96,3.12,4.83,3.12,8.29s-1.08,6.32-3.12,8.29Z"/>
          <path class="cls-1" d="M13,32.82c0-1.92-1.42-3.32-3.45-3.4-.84-.03-5.27-.03-6.11,0h0C1.42,29.5,0,30.9,0,32.82c0,1.92,1.42,3.32,3.45,3.4h0c.84.03,5.27.03,6.11,0,2.03-.08,3.45-1.48,3.45-3.4Z"/>
          <path class="cls-1" d="M56.35,32.82c0-1.92,1.42-3.32,3.45-3.4.84-.03,5.27-.03,6.11,0h0c2.03.08,3.45,1.48,3.45,3.4s-1.42,3.32-3.45,3.4h0c-.84.03-5.27.03-6.11,0-2.03-.08-3.45-1.48-3.45-3.4Z"/>
          <path class="cls-1" d="M53.57,21.91c-.96-1.66-.43-3.58,1.28-4.67.71-.45,4.62-2.71,5.36-3.1h0c1.8-.94,3.73-.44,4.69,1.22s.43,3.58-1.28,4.67h0c-.71.45-4.62,2.71-5.36,3.1-1.8.94-3.73.44-4.69-1.22Z"/>
          <path class="cls-1" d="M15.78,43.73c-.96-1.66-2.89-2.17-4.69-1.22-.74.39-4.65,2.65-5.36,3.1h0c-1.72,1.09-2.24,3.01-1.28,4.67s2.89,2.17,4.69,1.22h0c.74-.39,4.65-2.65,5.36-3.1,1.72-1.09,2.24-3.01,1.28-4.67Z"/>
          <path class="cls-1" d="M51.61,3.48c-1.66-.96-3.58-.43-4.67,1.28-.45.71-2.5,4.27-2.89,5.01h0c-.94,1.8-.44,3.73,1.22,4.69s3.58.43,4.67-1.28h0c.45-.71,2.5-4.27,2.89-5.01.94-1.8.44-3.73-1.22-4.69Z"/>
          <path class="cls-1" d="M17.74,62.15c-1.66-.96-2.17-2.89-1.22-4.69.39-.74,2.44-4.3,2.89-5.01h0c1.09-1.72,3.01-2.24,4.67-1.28s2.17,2.89,1.22,4.69h0c-.39.74-2.44,4.3-2.89,5.01-1.09,1.72-3.01,2.24-4.67,1.28Z"/>
          <path class="cls-1" d="M17.74,3.48c1.66-.96,3.58-.43,4.67,1.28.45.71,2.5,4.27,2.89,5.01h0c.94,1.8.44,3.73-1.22,4.69s-3.58.43-4.67-1.28h0c-.45-.71-2.5-4.27-2.89-5.01-.94-1.8-.44-3.73,1.22-4.69Z"/>
          <path class="cls-1" d="M51.61,62.15c1.66-.96,2.17-2.89,1.22-4.69-.39-.74-2.44-4.3-2.89-5.01h0c-1.09-1.72-3.01-2.24-4.67-1.28-1.66.96-2.17,2.89-1.22,4.69h0c.39.74,2.44,4.3,2.89,5.01,1.09,1.72,3.01,2.24,4.67,1.28Z"/>
          <path class="cls-1" d="M15.78,21.91c.96-1.66.43-3.58-1.28-4.67-.71-.45-4.62-2.71-5.36-3.1h0c-1.8-.94-3.73-.44-4.69,1.22-.96,1.66-.43,3.58,1.28,4.67h0c.71.45,4.62,2.71,5.36,3.1,1.8.94,3.73.44,4.69-1.22Z"/>
          <path class="cls-1" d="M53.57,43.73c.96-1.66,2.89-2.17,4.69-1.22.74.39,4.65,2.65,5.36,3.1h0c1.72,1.09,2.24,3.01,1.28,4.67-.96,1.66-2.89,2.17-4.69,1.22h0c-.74-.39-4.65-2.65-5.36-3.1-1.72-1.09-2.24-3.01-1.28-4.67Z"/>
          <path class="cls-1" d="M34.67,12.3c1.92,0,3.32-1.42,3.4-3.45.03-.84.03-4.57,0-5.4h0c-.08-2.03-1.48-3.45-3.4-3.45s-3.32,1.42-3.4,3.45h0c-.03.84-.03,4.57,0,5.4.08,2.03,1.48,3.45,3.4,3.45Z"/>
          <path class="cls-1" d="M34.67,53.32c1.92,0,3.32,1.42,3.4,3.45.03.84.03,4.57,0,5.4h0c-.08,2.03-1.48,3.45-3.4,3.45s-3.32-1.42-3.4-3.45h0c-.03-.84-.03-4.57,0-5.4.08-2.03,1.48-3.45,3.4-3.45Z"/>
        </g>
        <g>
          <path class="cls-1" d="M93.08,13.63h-4.78c-.98,0-1.24-.59-1.24-1.05,0-.52.26-1.05,1.24-1.01h15.88V.94h-18.76c-6.61,0-11.78,4.32-11.78,10.47s4.19,10.67,11.84,10.67h5.5c.85,0,1.24.46,1.24,1.05,0,.52-.33,1.05-1.24,1.05h-16.41v10.8h18.43c7.59,0,12.11-4.52,12.11-10.8s-4.19-10.54-12.04-10.54Z"/>
          <path class="cls-1" d="M130.47.94v18.53c0,1.49-1.07,2.67-2.72,2.67s-2.72-1.18-2.72-2.67V.94h-15.74v23.64c0,7.2,3.66,11.32,9.42,11.32,4.97,0,9.49-2.94,11.78-7.79v6.85h15.72V.94h-15.74Z"/>
          <path class="cls-1" d="M166.72,34.96v-18.53c0-1.49,1.07-2.67,2.72-2.67s2.72,1.18,2.72,2.67v18.53h15.74V11.32C187.9,4.12,184.23,0,178.47,0,173.5,0,168.99,2.94,166.7,7.79V.94h-15.72v34.03h15.74Z"/>
          <path class="cls-1" d="M210.27,0c-11.66,0-18.97,7.47-18.97,17.95s7.31,17.95,18.97,17.95,18.97-7.34,18.97-17.95S221.87,0,210.27,0ZM210.27,22.41c-2.77,0-4.55-1.97-4.55-4.45s1.78-4.45,4.55-4.45,4.55,1.97,4.55,4.45-1.78,4.45-4.55,4.45Z"/>
        </g>
      </g>
    </g>
  </g>
</svg>