<?xml version="1.0" encoding="UTF-8"?>
<svg id="Camada_2" data-name="Camada 2" xmlns="http://www.w3.org/2000/svg" viewBox="0 0 229.24 72.67">
  <defs>
    <style>
      .cls-1 {
        fill: #012340;
        stroke-width: 0px;
      }
    </style>
  </defs>
  <g id="SECAO-03-Soluções">
    <g>
      <g>
        <path class="cls-1" d="M80.55,65.63c-2.9,0-5.27-.85-6.9-1.81l1.45-3.91c1.38.96,3.61,1.74,5.69,1.74,2.41,0,4.35-1,4.35-3.34,0-2.03-1.77-2.88-3.36-3.56l-1.95-.82c-3.25-1.39-5.8-3.2-5.8-7.22,0-4.27,3.5-7.47,8.77-7.47,2.26,0,4.7.46,6.68,1.6l-1.52,3.81c-1.45-.96-3.22-1.53-5.16-1.53-3.01,0-3.89,1.74-3.89,3.09,0,1.85,1.73,2.7,3.25,3.38l1.91.85c3.22,1.42,5.98,3.17,5.98,7.18,0,5.76-4.56,8-9.51,8Z"/>
        <path class="cls-1" d="M104.1,44.01v21.02h-4.99v-21.02h-7.78v-4.09h20.58v4.09h-7.82Z"/>
        <path class="cls-1" d="M126.06,65.03c-.25-2.13-.64-4.34-1.2-6.54h-9.83c-.53,2.21-.95,4.41-1.27,6.54h-4.99c1.38-8.43,3.78-17.78,8.42-25.14h5.91c4.7,7.65,7,16.57,8.49,25.14h-5.52ZM119.98,43.69h-.07c-1.73,3.34-3.11,7.08-4.14,10.99h8.35c-1.06-3.84-2.41-7.61-4.14-10.99Z"/>
        <path class="cls-1" d="M138.65,44.04v6.26h9.94v4.09h-9.94v10.63h-4.99v-25.11h15.28v4.13h-10.29Z"/>
        <path class="cls-1" d="M157.47,44.04v6.26h9.94v4.09h-9.94v10.63h-4.99v-25.11h15.28v4.13h-10.29Z"/>
        <path class="cls-1" d="M171.44,65.03v-25.11h4.99v25.11h-4.99Z"/>
        <path class="cls-1" d="M197.5,65.03l-9.48-13.3c-1.34-1.88-2.02-3.34-2.23-3.91h-.07v17.21h-4.63v-25.11h4.6l9.23,13.55c1.41,2.06,2.26,3.56,2.48,4.2h.07v-17.75h4.6v25.11h-4.56Z"/>
        <path class="cls-1" d="M216.25,72.67l-.32-3.34c2.86-.25,5.48-1.24,5.27-4.66-1.03.25-2.48.36-3.54.36-9.76,0-12.59-6.93-12.59-12.34,0-6.97,3.96-13.44,12.7-13.44,3.57,0,5.87.75,7.99,1.85l-1.63,3.95c-1.84-1.14-3.89-1.74-6.01-1.74-5.41,0-7.92,4.2-7.92,9.28s2.65,8.5,7.78,8.5c1.34,0,2.51-.18,3.22-.39v-8.32h4.74v11.88c0,4.84-2.76,8.11-9.69,8.43Z"/>
      </g>
      <g>
        <path class="cls-1" d="M34.67,14.49c-11.91,0-19.38,7.49-19.38,18.33s7.47,18.33,19.38,18.33,19.38-7.49,19.38-18.33-7.47-18.33-19.38-18.33ZM44.08,41.1c-2.17,2.08-5.42,3.19-9.4,3.19s-7.23-1.1-9.4-3.19c-2.04-1.96-3.12-4.83-3.12-8.29s1.08-6.32,3.12-8.29c2.17-2.08,5.42-3.19,9.4-3.19s7.23,1.1,9.4,3.19c2.04,1.96,3.12,4.83,3.12,8.29s-1.08,6.32-3.12,8.29Z"/>
        <path class="cls-1" d="M13,32.82c0-1.92-1.42-3.32-3.45-3.4-.84-.03-5.27-.03-6.11,0h0C1.42,29.5,0,30.9,0,32.82c0,1.92,1.42,3.32,3.45,3.4h0c.84.03,5.27.03,6.11,0,2.03-.08,3.45-1.48,3.45-3.4Z"/>
        <path class="cls-1" d="M56.35,32.82c0-1.92,1.42-3.32,3.45-3.4.84-.03,5.27-.03,6.11,0h0c2.03.08,3.45,1.48,3.45,3.4s-1.42,3.32-3.45,3.4h0c-.84.03-5.27.03-6.11,0-2.03-.08-3.45-1.48-3.45-3.4Z"/>
        <path class="cls-1" d="M53.57,21.91c-.96-1.66-.43-3.58,1.28-4.67.71-.45,4.62-2.71,5.36-3.1h0c1.8-.94,3.73-.44,4.69,1.22s.43,3.58-1.28,4.67h0c-.71.45-4.62,2.71-5.36,3.1-1.8.94-3.73.44-4.69-1.22Z"/>
        <path class="cls-1" d="M15.78,43.73c-.96-1.66-2.89-2.17-4.69-1.22-.74.39-4.65,2.65-5.36,3.1h0c-1.72,1.09-2.24,3.01-1.28,4.67s2.89,2.17,4.69,1.22h0c.74-.39,4.65-2.65,5.36-3.1,1.72-1.09,2.24-3.01,1.28-4.67Z"/>
        <path class="cls-1" d="M51.61,3.48c-1.66-.96-3.58-.43-4.67,1.28-.45.71-2.5,4.27-2.89,5.01h0c-.94,1.8-.44,3.73,1.22,4.69,1.66.96,3.58.43,4.67-1.28h0c.45-.71,2.5-4.27,2.89-5.01.94-1.8.44-3.73-1.22-4.69Z"/>
        <path class="cls-1" d="M17.74,62.15c-1.66-.96-2.17-2.89-1.22-4.69.39-.74,2.44-4.3,2.89-5.01h0c1.09-1.72,3.01-2.24,4.67-1.28,1.66.96,2.17,2.89,1.22,4.69h0c-.39.74-2.44,4.3-2.89,5.01-1.09,1.72-3.01,2.24-4.67,1.28Z"/>
        <path class="cls-1" d="M17.74,3.48c1.66-.96,3.58-.43,4.67,1.28.45.71,2.5,4.27,2.89,5.01h0c.94,1.8.44,3.73-1.22,4.69-1.66.96-3.58.43-4.67-1.28h0c-.45-.71-2.5-4.27-2.89-5.01-.94-1.8-.44-3.73,1.22-4.69Z"/>
        <path class="cls-1" d="M51.61,62.15c1.66-.96,2.17-2.89,1.22-4.69-.39-.74-2.44-4.3-2.89-5.01h0c-1.09-1.72-3.01-2.24-4.67-1.28-1.66.96-2.17,2.89-1.22,4.69h0c.39.74,2.44,4.3,2.89,5.01,1.09,1.72,3.01,2.24,4.67,1.28Z"/>
        <path class="cls-1" d="M15.78,21.91c.96-1.66.43-3.58-1.28-4.67-.71-.45-4.62-2.71-5.36-3.1h0c-1.8-.94-3.73-.44-4.69,1.22-.96,1.66-.43,3.58,1.28,4.67h0c.71.45,4.62,2.71,5.36,3.1,1.8.94,3.73.44,4.69-1.22Z"/>
        <path class="cls-1" d="M53.57,43.73c.96-1.66,2.89-2.17,4.69-1.22.74.39,4.65,2.65,5.36,3.1h0c1.72,1.09,2.24,3.01,1.28,4.67s-2.89,2.17-4.69,1.22h0c-.74-.39-4.65-2.65-5.36-3.1-1.72-1.09-2.24-3.01-1.28-4.67Z"/>
        <path class="cls-1" d="M34.67,12.3c1.92,0,3.32-1.42,3.4-3.45.03-.84.03-4.57,0-5.4h0c-.08-2.03-1.48-3.45-3.4-3.45s-3.32,1.42-3.4,3.45h0c-.03.84-.03,4.57,0,5.4.08,2.03,1.48,3.45,3.4,3.45Z"/>
        <path class="cls-1" d="M34.67,53.32c1.92,0,3.32,1.42,3.4,3.45.03.84.03,4.57,0,5.4h0c-.08,2.03-1.48,3.45-3.4,3.45s-3.32-1.42-3.4-3.45h0c-.03-.84-.03-4.57,0-5.4.08-2.03,1.48-3.45,3.4-3.45Z"/>
      </g>
      <g>
        <path class="cls-1" d="M93.08,13.63h-4.78c-.98,0-1.24-.59-1.24-1.05,0-.52.26-1.05,1.24-1.01h15.88V.94h-18.76c-6.61,0-11.78,4.32-11.78,10.47s4.19,10.67,11.84,10.67h5.5c.85,0,1.24.46,1.24,1.05,0,.52-.33,1.05-1.24,1.05h-16.41v10.8h18.43c7.59,0,12.11-4.52,12.11-10.8s-4.19-10.54-12.04-10.54Z"/>
        <path class="cls-1" d="M130.47.94v18.53c0,1.49-1.07,2.67-2.72,2.67s-2.72-1.18-2.72-2.67V.94h-15.74v23.64c0,7.2,3.66,11.32,9.42,11.32,4.97,0,9.49-2.94,11.78-7.79v6.85h15.72V.94h-15.74Z"/>
        <path class="cls-1" d="M166.72,34.96v-18.53c0-1.49,1.07-2.67,2.72-2.67s2.72,1.18,2.72,2.67v18.53h15.74V11.32C187.9,4.12,184.23,0,178.47,0,173.5,0,168.99,2.94,166.7,7.79V.94h-15.72v34.03h15.74Z"/>
        <path class="cls-1" d="M210.27,0c-11.66,0-18.97,7.47-18.97,17.95s7.31,17.95,18.97,17.95,18.97-7.34,18.97-17.95S221.87,0,210.27,0ZM210.27,22.41c-2.77,0-4.55-1.97-4.55-4.45s1.78-4.45,4.55-4.45,4.55,1.97,4.55,4.45-1.78,4.45-4.55,4.45Z"/>
      </g>
    </g>
  </g>
</svg>